<svg width="180" height="180" viewBox="0 0 180 180" fill="none" xmlns="http://www.w3.org/2000/svg">
<path d="M24.617 100.801L9.41477 96.946L23.7573 90.5977L23.3888 86.267L0 80.4736L0.433509 85.6689L16.1199 89.0629L1.19222 95.4327L1.55349 99.6986L17.3411 103.467L2.4422 109.448L2.89018 114.773L24.9855 105.132L24.617 100.801Z" fill="#0038FF"/>
<path d="M11.1997 64.4269C12.2113 65.5798 13.4541 66.5093 14.9136 67.2083L14.9714 67.2371C16.4309 67.9361 17.9266 68.3252 19.4584 68.3973C20.9902 68.4693 22.457 68.2531 23.866 67.7343C25.2677 67.2227 26.5683 66.4373 27.7532 65.3708C28.9454 64.3116 29.9136 62.9929 30.665 61.4077C31.4237 59.8296 31.8355 58.2371 31.9222 56.6375C32.0017 55.0378 31.7922 53.5246 31.2864 52.0979C30.7806 50.6711 30.022 49.3813 29.0105 48.2212C27.9989 47.0682 26.7561 46.1387 25.2966 45.4397L25.2387 45.4109C23.7792 44.7119 22.2835 44.3301 20.7517 44.2508C19.22 44.1787 17.7532 44.3949 16.3442 44.9137C14.9425 45.4253 13.6419 46.2108 12.457 47.2772C11.272 48.3365 10.2965 49.6551 9.54508 51.2404C8.79363 52.8184 8.37456 54.4109 8.28786 56.0106C8.20838 57.6103 8.41792 59.1234 8.9237 60.5502C9.42948 61.9769 10.1882 63.2668 11.1997 64.4269ZM13.6636 53.2796C14.0899 52.3861 14.6607 51.6367 15.3616 51.0386C16.0625 50.4405 16.8428 50.001 17.6954 49.7271C18.5408 49.4533 19.4295 49.3452 20.3544 49.4173C21.2793 49.4894 22.1752 49.7344 23.0567 50.1523L23.1145 50.1811C23.9888 50.599 24.7402 51.1467 25.3688 51.8168C25.9902 52.487 26.4671 53.2291 26.7994 54.0434C27.1246 54.8576 27.2763 55.7296 27.2402 56.6447C27.2113 57.5598 26.9801 58.4677 26.5538 59.3684C26.113 60.2836 25.5495 61.0402 24.8486 61.6238C24.1477 62.2075 23.3746 62.6398 22.5292 62.9209C21.6838 63.1947 20.7951 63.3028 19.8703 63.2307C18.9454 63.1586 18.0495 62.9137 17.168 62.4957L17.1101 62.4669C16.2358 62.049 15.4844 61.5014 14.8558 60.8312C14.2344 60.1611 13.7575 59.4189 13.4251 58.6046C13.1 57.7904 12.9483 56.9257 12.9699 56.0178C12.9988 55.1099 13.2301 54.1947 13.6636 53.2796Z" fill="#0038FF"/>
<path d="M45.3249 40.7548L40.7513 35.1199L43.7426 32.6915L43.7931 32.6483L52.1313 35.2208L56.6545 31.5386L47.2542 28.7428C48.0345 27.4097 48.4102 26.0118 48.3813 24.5491C48.3451 23.0863 47.7527 21.6451 46.5966 20.2184L46.5532 20.168C45.1948 18.4891 43.6052 17.5595 41.7772 17.3649C39.624 17.1416 37.4347 17.9342 35.2021 19.75L27.1602 26.2929L41.4449 43.9037L45.3177 40.7548H45.3249ZM33.8726 26.6387L37.7165 23.5114C38.6703 22.7332 39.5879 22.3369 40.4622 22.3225C41.3365 22.3081 42.1168 22.7188 42.796 23.5547L42.8394 23.6051C43.4536 24.3617 43.6848 25.176 43.5403 26.0407C43.3958 26.9125 42.8466 27.734 41.8928 28.5122L37.9694 31.6972L33.8654 26.6387H33.8726Z" fill="#0038FF"/>
<path d="M79.8628 23.4838L78.5622 19.1748L67.7457 22.4462L62.4856 5.03711L57.7168 6.48543L64.2775 28.2036L79.8628 23.4838Z" fill="#0038FF"/>
<path d="M101.728 23.2169C103.26 22.799 104.618 22.1505 105.788 21.257C106.966 20.3707 107.92 19.2682 108.65 17.9568C109.387 16.6453 109.842 15.1969 110.015 13.6117V13.5468C110.203 11.9544 110.073 10.4483 109.647 9.0144C109.221 7.58766 108.534 6.30503 107.588 5.18093C106.641 4.05684 105.463 3.12009 104.054 2.3851C102.645 1.65011 101.063 1.18894 99.3072 0.987184L90.5211 0L87.9922 22.554L96.7783 23.5412C98.534 23.7358 100.182 23.6277 101.721 23.2169H101.728ZM94.9864 5.03686L98.8159 5.46918C99.8274 5.58447 100.731 5.85108 101.525 6.27622C102.327 6.70136 102.985 7.24902 103.505 7.91915C104.025 8.58208 104.408 9.36028 104.647 10.2322C104.885 11.1041 104.95 12.0408 104.835 13.028V13.0929C104.712 14.1017 104.444 14.9952 104.025 15.7734C103.599 16.5516 103.057 17.2073 102.407 17.7478C101.749 18.281 100.983 18.6629 100.109 18.8935C99.2349 19.1241 98.2957 19.1817 97.2913 19.0664L93.4618 18.6341L94.9864 5.03686Z" fill="#0038FF"/>
<path d="M138.634 33.6435L141.423 36.3096L141.467 36.3529L139.978 44.9638L144.198 48.9918L145.78 39.3C147.196 39.9053 148.627 40.0999 150.072 39.8837C151.517 39.6675 152.876 38.8965 154.14 37.5634L154.183 37.513C155.672 35.9493 156.402 34.2488 156.351 32.4186C156.3 30.2496 155.238 28.1744 153.157 26.1928L145.657 19.0303L130.021 35.4522L133.627 38.8965L138.627 33.6435H138.634ZM146.163 25.7388L149.747 29.1616C150.636 30.0118 151.149 30.8693 151.272 31.7412C151.402 32.6059 151.091 33.4346 150.347 34.2128L150.303 34.2632C149.631 34.9694 148.858 35.3008 147.984 35.272C147.11 35.2432 146.221 34.7965 145.332 33.9462L141.676 30.4586L146.163 25.746V25.7388Z" fill="#0038FF"/>
<path d="M155.377 71.877L159.444 70.1117L154.546 58.813L158.91 56.9179L163.166 66.7322L167.233 64.9595L162.985 55.1453L167.197 53.3151L172.031 64.4695L176.099 62.6969L169.307 47.0244L148.52 56.0605L155.377 71.877Z" fill="#0038FF"/>
<path d="M179.999 80.7119L157.333 80.5029L157.29 85.4316L171.697 85.5614L157.196 96.4204L157.152 100.665L179.819 100.874L179.862 95.9448L165.91 95.8224L179.956 85.3164L179.999 80.7119Z" fill="#0038FF"/>
<path d="M169.359 117.151C168.369 115.976 167.148 115.025 165.696 114.298L165.638 114.269C164.193 113.541 162.704 113.13 161.173 113.029C159.641 112.928 158.167 113.116 156.758 113.606C155.342 114.096 154.034 114.852 152.827 115.89C151.621 116.928 150.623 118.232 149.843 119.795C149.063 121.359 148.615 122.944 148.499 124.544C148.391 126.144 148.571 127.657 149.048 129.098C149.525 130.532 150.262 131.836 151.252 133.011C152.242 134.185 153.47 135.137 154.915 135.864L154.973 135.893C156.418 136.621 157.907 137.032 159.439 137.133C160.97 137.233 162.444 137.046 163.853 136.556C165.269 136.066 166.577 135.309 167.784 134.272C168.99 133.234 169.988 131.93 170.768 130.366C171.548 128.803 171.996 127.217 172.112 125.618C172.22 124.018 172.04 122.505 171.563 121.064C171.086 119.63 170.349 118.326 169.359 117.151ZM166.693 128.248C166.252 129.134 165.667 129.876 164.952 130.46C164.236 131.044 163.456 131.462 162.596 131.728C161.736 131.995 160.855 132.074 159.93 131.988C159.005 131.901 158.116 131.635 157.242 131.202L157.184 131.173C156.317 130.734 155.573 130.179 154.959 129.494C154.345 128.81 153.882 128.061 153.571 127.239C153.261 126.418 153.123 125.546 153.174 124.631C153.225 123.708 153.47 122.808 153.911 121.921C154.366 121.013 154.944 120.271 155.66 119.695C156.368 119.118 157.155 118.7 158.008 118.441C158.86 118.181 159.749 118.095 160.674 118.181C161.599 118.268 162.488 118.535 163.362 118.967L163.42 118.996C164.287 119.428 165.031 119.99 165.638 120.675C166.252 121.352 166.715 122.109 167.025 122.93C167.336 123.751 167.473 124.616 167.43 125.524C167.386 126.432 167.134 127.34 166.686 128.248H166.693Z" fill="#0038FF"/>
<path d="M131.011 143.2L134.782 158.44L122.427 148.77L118.785 151.133L124.71 174.523L129.081 171.684L124.674 156.235L137.318 166.41L140.909 164.082L136.791 148.366L149.074 158.707L153.561 155.795L134.652 140.829L131.011 143.2Z" fill="#0038FF"/>
<path d="M99.5076 156.473L100.331 170.878L88.5466 157.1L84.3125 157.345L85.6059 180L90.5192 179.719L89.7243 165.769L101.126 179.114L105.714 178.847L104.421 156.192L99.5076 156.473Z" fill="#0038FF"/>
<path d="M57.0018 153.584L68.5263 157.9L66.8573 162.36L56.85 158.613L55.2966 162.778L65.3038 166.525L63.6998 170.834L52.3269 166.575L50.7734 170.733L66.7489 176.721L74.6896 155.464L58.5553 149.426L57.0018 153.584Z" fill="#0038FF"/>
<path d="M44.6888 138.631C43.4244 137.392 42.0587 136.462 40.5919 135.842C39.1252 135.223 37.6584 134.906 36.1844 134.884C34.7105 134.862 33.2871 135.143 31.8998 135.72C30.5125 136.296 29.2625 137.161 28.1498 138.307L28.1065 138.357C26.9865 139.496 26.1628 140.764 25.6209 142.155C25.0789 143.545 24.8333 144.972 24.8911 146.449C24.9489 147.926 25.3029 149.382 25.9604 150.83C26.6179 152.279 27.579 153.619 28.8435 154.858L35.1585 161.048L51.0038 144.828L44.6888 138.638V138.631ZM34.7394 154.332L31.9865 151.63C31.2567 150.917 30.7148 150.153 30.3463 149.324C29.9778 148.496 29.7972 147.66 29.7899 146.81C29.7899 145.959 29.9633 145.123 30.3102 144.28C30.657 143.444 31.1845 142.673 31.8781 141.96L31.9214 141.917C32.6295 141.189 33.3882 140.649 34.2047 140.295C35.0212 139.942 35.8449 139.755 36.6975 139.741C37.5429 139.726 38.381 139.892 39.2119 140.252C40.0429 140.613 40.816 141.146 41.5458 141.852L44.2986 144.554L34.7466 154.332H34.7394Z" fill="#0038FF"/>
</svg>
