<svg width="180" height="180" viewBox="0 0 180 180" fill="none" xmlns="http://www.w3.org/2000/svg">
<path d="M123.501 124.006C126.808 120.692 129.646 116.893 131.877 112.726C132.21 112.098 132.535 111.47 132.845 110.827C135.871 104.537 137.568 97.482 137.568 90.0367C137.568 82.5915 135.77 75.139 132.578 68.7119C132.26 68.0764 131.935 67.4482 131.589 66.8271C129.314 62.7182 126.454 58.9703 123.132 55.7062C122.627 55.208 122.1 54.7169 121.572 54.2403C118.799 51.7489 115.73 49.5825 112.43 47.7843C111.787 47.4377 111.138 47.1055 110.48 46.7806C108.032 45.5962 105.476 44.6141 102.826 43.8559C102.06 43.6393 101.288 43.437 100.508 43.2565C97.7925 42.6283 94.9905 42.2383 92.1236 42.0939C91.7481 42.065 91.3654 42.0434 90.9899 42.0289C90.8599 42.0145 90.7299 42 90.5927 42C90.5277 42 90.4699 42 90.4049 42.0072C90.3327 42.0072 90.2533 42.0072 90.1811 42.0072C90.1378 42.0072 90.0872 42.0072 90.0438 42.0072C90.0222 42.0072 90.0005 42.0072 89.9789 42.0072C89.9139 42.0072 89.8561 42.0072 89.7911 42.0072C88.9895 42.0072 88.1952 42.0433 87.4081 42.1011C84.5557 42.2455 81.7609 42.6355 79.0601 43.2565C78.2802 43.437 77.5003 43.6393 76.7349 43.8559C74.0846 44.6141 71.521 45.5962 69.0802 46.7806C68.4231 47.0983 67.7731 47.4377 67.1304 47.7843C63.8302 49.5752 60.7684 51.7489 57.9882 54.2403C57.4538 54.7169 56.9338 55.208 56.4283 55.7062C53.0993 58.9703 50.2396 62.711 47.9721 66.8271C47.6327 67.4482 47.3004 68.0764 46.9899 68.7119C43.7981 75.139 42 82.382 42 90.0367C42 97.6914 43.697 104.537 46.7227 110.827C47.0332 111.47 47.3511 112.098 47.6905 112.726C49.9291 116.893 52.7599 120.692 56.0673 124.006C56.5655 124.512 57.0855 125.003 57.6054 125.479C60.364 128.007 63.4186 130.209 66.7116 132.044C67.3398 132.397 67.9826 132.73 68.6325 133.055C71.0661 134.261 73.608 135.271 76.251 136.059C76.9948 136.282 77.7458 136.485 78.5113 136.672C81.371 137.373 84.339 137.806 87.372 137.958C88.1735 138.023 88.9823 138.059 89.7983 138.059C89.8633 138.059 89.9283 138.059 89.9861 138.059C90.0078 138.059 90.0294 138.059 90.0511 138.059C90.1016 138.059 90.145 138.059 90.1883 138.059C90.2605 138.059 90.3399 138.059 90.4121 138.059C90.4771 138.059 90.5349 138.066 90.5999 138.066C90.7299 138.066 90.8671 138.059 90.9971 138.045C91.3871 138.03 91.777 138.001 92.167 137.972C95.2216 137.821 98.1968 137.387 101.071 136.68C101.829 136.492 102.587 136.29 103.331 136.066C105.974 135.279 108.516 134.275 110.95 133.062C111.6 132.737 112.242 132.405 112.871 132.051C116.164 130.224 119.211 128.014 121.97 125.487C122.49 125.01 123.01 124.512 123.508 124.013L123.501 124.006ZM121.962 122.533C121.154 121.789 120.316 121.074 119.457 120.388C121.76 116.857 123.674 112.907 125.111 108.653C126.837 109.549 128.505 110.517 130.101 111.535C127.942 115.6 125.19 119.305 121.962 122.533ZM89.7767 120.663C87.8052 120.663 85.8771 120.879 83.9923 121.291C83.4652 118.641 83.0174 115.752 82.6419 112.683C84.9672 112.315 87.3503 112.12 89.7767 112.12C92.7591 112.12 95.6766 112.409 98.5074 112.965C98.1247 116.077 97.6552 119.002 97.1136 121.681C94.745 121.016 92.2969 120.663 89.7839 120.663H89.7767ZM96.6587 123.768C96.1026 126.187 95.5249 128.18 94.94 129.812C93.2646 129.177 91.5315 128.844 89.7767 128.844C88.5274 128.844 87.2853 129.011 86.0721 129.336C85.516 127.711 84.9601 125.732 84.4329 123.378C86.1733 122.995 87.9569 122.793 89.7767 122.793C92.1381 122.793 94.4345 123.132 96.6587 123.768ZM89.7767 109.989C87.2708 109.989 84.8011 110.184 82.3964 110.567C82.0642 107.455 81.8043 104.176 81.631 100.789C84.2957 100.529 87.0109 100.392 89.7767 100.392C93.0985 100.392 96.3626 100.587 99.54 100.963C99.3595 104.393 99.0995 107.7 98.7529 110.842C95.8427 110.285 92.8458 109.989 89.7767 109.989ZM89.7767 69.3763C92.8169 69.3763 95.7921 69.0874 98.6807 68.5458C99.0345 71.6799 99.3162 74.9801 99.5039 78.4103C96.3338 78.7858 93.0841 78.9808 89.7767 78.9808C87.0253 78.9808 84.3245 78.8436 81.6671 78.5836C81.8548 75.1895 82.1292 71.9182 82.4758 68.813C84.8589 69.1813 87.2925 69.3763 89.7767 69.3763ZM82.7286 66.6972C83.1185 63.6281 83.588 60.7468 84.1368 58.1037C85.9783 58.5009 87.863 58.7031 89.7767 58.7031C92.2392 58.7031 94.6439 58.3637 96.9692 57.7282C97.5325 60.3929 98.0163 63.3031 98.4207 66.4155C95.6188 66.9571 92.7302 67.2388 89.7767 67.2388C87.3792 67.2388 85.025 67.051 82.7286 66.6899V66.6972ZM115.817 88.9752C115.774 84.9601 115.463 81.0244 114.907 77.2476C117.947 76.2655 120.865 75.1101 123.638 73.803C125.06 78.5403 125.869 83.6458 125.963 88.9752H115.81H115.817ZM125.97 91.1127C125.876 96.211 125.125 101.1 123.826 105.664C121.024 104.335 118.085 103.165 115.015 102.169C115.507 98.594 115.781 94.8895 115.824 91.1127H125.978H125.97ZM114.575 75.1245C113.896 71.2105 112.95 67.4771 111.751 64.0036C113.737 62.9637 115.644 61.7938 117.456 60.5012C119.709 63.8808 121.58 67.6721 122.995 71.7738C120.323 73.0448 117.507 74.1641 114.582 75.1245H114.575ZM101.952 88.9824C101.938 86.0794 101.858 83.1619 101.721 80.2806C105.563 79.7318 109.289 78.923 112.864 77.8831C113.369 81.4288 113.651 85.1478 113.701 88.9824H101.952ZM113.701 91.1199C113.658 94.709 113.405 98.1969 112.957 101.54C109.368 100.486 105.628 99.6701 101.757 99.1212C101.873 96.471 101.938 93.7918 101.952 91.1271H113.701V91.1199ZM112.538 75.7672C109.043 76.7999 105.389 77.6015 101.62 78.1431C101.418 74.7057 101.129 71.3261 100.76 68.1126C103.923 67.3616 106.964 66.3 109.845 64.9496C110.971 68.2787 111.881 71.911 112.538 75.7672ZM100.493 65.9823C100.082 62.8121 99.5833 59.8224 98.9984 57.0927C101.02 56.3706 102.97 55.4174 104.833 54.2547C106.451 56.7678 107.895 59.6924 109.123 62.9348C106.386 64.2274 103.497 65.2529 100.493 65.9823ZM81.3782 88.9896C81.3926 86.1877 81.4576 83.4291 81.5732 80.7356C84.2667 80.9955 87.0037 81.1327 89.7911 81.1327C93.1346 81.1327 96.4204 80.9378 99.6266 80.5622C99.7494 83.3064 99.8144 86.1299 99.8289 88.9896H81.3782ZM99.8289 91.1271C99.8144 93.7413 99.7567 96.3265 99.6556 98.8468C96.442 98.4713 93.1418 98.2763 89.7911 98.2763C86.9964 98.2763 84.2451 98.4135 81.5443 98.6735C81.4432 96.2038 81.3854 93.6835 81.3782 91.1271H99.8289ZM80.6705 66.3361C77.262 65.6428 73.9908 64.5596 70.9 63.1443C72.1132 59.9163 73.5358 57.0061 75.1245 54.4858C77.3415 55.829 79.6739 56.8833 82.1075 57.5982C81.5515 60.2918 81.0677 63.2309 80.6705 66.3361ZM80.4178 68.4664C80.0567 71.6511 79.7823 74.9729 79.5873 78.3741C75.4133 77.8542 71.3838 77.031 67.5421 75.9189C68.1848 72.0916 69.0801 68.4809 70.185 65.1662C73.4202 66.6322 76.8504 67.7515 80.4178 68.4664ZM79.2551 88.9896H66.3938C66.4371 85.2056 66.7188 81.5371 67.217 78.0275C71.1383 79.1468 75.24 79.9773 79.479 80.4972C79.349 83.3136 79.2768 86.1588 79.2624 88.9824L79.2551 88.9896ZM79.4429 98.9046C75.1823 99.4318 71.0588 100.269 67.1232 101.396C66.6899 98.0958 66.4371 94.6584 66.3938 91.1271H79.2551C79.2696 93.7196 79.3274 96.3266 79.4429 98.9046ZM65.4983 75.2979C62.3931 74.3085 59.4107 73.1242 56.5944 71.781C58.0098 67.6793 59.8802 63.888 62.1332 60.5084C64.083 61.9022 66.1339 63.1443 68.2787 64.2347C67.1016 67.6865 66.1699 71.3983 65.4983 75.2906V75.2979ZM65.1662 77.421C64.6246 81.1544 64.3285 85.0323 64.278 88.9896H53.6047C53.7058 83.6602 54.5146 78.5547 55.9372 73.8174C58.8619 75.1967 61.9454 76.4027 65.159 77.421H65.1662ZM64.278 91.1271C64.3213 94.8462 64.5885 98.493 65.0651 102.017C61.8155 103.042 58.7102 104.27 55.7567 105.671C54.4496 101.114 53.6986 96.2182 53.6047 91.1199H64.278V91.1271ZM65.3829 104.147C66.0184 108.054 66.921 111.788 68.0692 115.268C65.8811 116.395 63.7869 117.687 61.8082 119.124C59.5913 115.702 57.757 111.86 56.385 107.715C59.2302 106.35 62.2416 105.151 65.3756 104.147H65.3829ZM67.4337 103.526C71.3044 102.407 75.3556 101.569 79.5512 101.049C79.7318 104.443 79.9989 107.772 80.3456 110.964C76.7277 111.694 73.2614 112.835 69.9901 114.344C68.9141 111 68.0475 107.375 67.4337 103.533V103.526ZM80.5911 113.087C80.9738 116.193 81.436 119.139 81.9776 121.854C79.479 122.605 77.0815 123.71 74.814 125.125C73.2469 122.569 71.8604 119.623 70.6833 116.366C73.8174 114.914 77.132 113.802 80.5983 113.087H80.5911ZM100.594 113.441C103.649 114.185 106.581 115.239 109.361 116.568C108.162 119.839 106.747 122.793 105.158 125.349C103.245 124.122 101.23 123.118 99.1501 122.36C99.7134 119.616 100.197 116.611 100.594 113.441ZM100.847 111.304C101.208 108.076 101.483 104.696 101.67 101.259C105.469 101.808 109.144 102.616 112.661 103.663C112.04 107.534 111.166 111.181 110.069 114.539C107.144 113.16 104.061 112.062 100.847 111.296V111.304ZM114.712 104.306C117.68 105.281 120.518 106.422 123.219 107.715C121.847 111.86 120.013 115.694 117.796 119.117C115.947 117.774 114.004 116.561 111.975 115.492C113.145 111.99 114.069 108.242 114.712 104.306ZM131.083 109.664C129.393 108.588 127.624 107.57 125.783 106.631C127.212 101.779 128.028 96.5649 128.13 91.1271H135.466C135.315 97.7419 133.755 104.017 131.083 109.664ZM135.466 88.9896H128.13C128.028 83.3208 127.147 77.8903 125.602 72.8642C127.407 71.9399 129.155 70.9578 130.823 69.9035C133.654 75.6878 135.308 82.1582 135.466 88.9896ZM129.848 68.0259C128.281 69.0225 126.635 69.9612 124.938 70.835C123.457 66.6177 121.515 62.7182 119.182 59.2375C120.013 58.5803 120.829 57.9015 121.616 57.1938C124.865 60.364 127.653 64.0108 129.848 68.0259ZM110.935 49.4236C114.228 51.1567 117.29 53.2798 120.049 55.7351C119.37 56.3417 118.669 56.9194 117.955 57.4827C115.781 54.5363 113.311 51.9294 110.603 49.7341C110.712 49.6258 110.827 49.5247 110.935 49.4236ZM116.258 58.7609C114.597 59.9524 112.849 61.0284 111.036 61.9888C110.271 60.0101 109.426 58.1254 108.495 56.3561C107.881 55.2007 107.245 54.1103 106.588 53.0849C107.411 52.4927 108.22 51.8572 109.007 51.1784C111.679 53.3015 114.113 55.8506 116.258 58.7536V58.7609ZM108.921 48.4343C108.921 48.4343 108.913 48.4343 108.906 48.4415C108.884 48.4271 108.87 48.4126 108.848 48.3982C108.87 48.4054 108.892 48.4198 108.921 48.4271V48.4343ZM107.274 49.8858C106.66 50.3985 106.025 50.8895 105.389 51.3517C103.959 49.3947 102.436 47.7194 100.84 46.3617C103.093 47.2789 105.245 48.4631 107.281 49.893L107.274 49.8858ZM103.649 52.5143C102.01 53.5253 100.305 54.3703 98.5434 55.013C97.9802 52.6949 97.3447 50.6151 96.6514 48.8315C97.4025 48.4415 98.1463 47.9938 98.8757 47.4811C100.573 48.8026 102.169 50.5068 103.649 52.5216V52.5143ZM96.9981 46.1884C96.6081 46.4412 96.211 46.665 95.8066 46.8744C95.4961 46.2317 95.171 45.6396 94.8389 45.1124C95.5754 45.4013 96.2904 45.7696 96.9981 46.1884ZM96.536 55.6629C94.3623 56.2695 92.1164 56.5944 89.8056 56.5944C88.0436 56.5944 86.3105 56.4067 84.6134 56.0456C85.1695 53.6698 85.7472 51.7056 86.3321 50.1097C87.4731 50.3985 88.6285 50.5501 89.8056 50.5501C91.4809 50.5501 93.1346 50.2468 94.7378 49.6691C95.3444 51.2578 95.951 53.2437 96.5287 55.6701L96.536 55.6629ZM90.3255 44.217C90.5421 44.217 90.7516 44.217 90.961 44.2242C91.8059 44.4481 92.8314 45.5096 93.9001 47.7049C92.5714 48.1671 91.1993 48.4126 89.8056 48.4126C88.9029 48.4126 88.0219 48.3115 87.1482 48.1093C88.3036 45.589 89.4228 44.4192 90.3255 44.2097V44.217ZM86.722 44.6431C86.166 45.4302 85.6461 46.3906 85.155 47.4955C84.3896 47.185 83.6313 46.8022 82.8875 46.3545C84.1296 45.5891 85.4077 45.0114 86.7293 44.6503L86.722 44.6431ZM84.3534 49.4669C83.7035 51.2362 83.1113 53.2726 82.5842 55.5185C80.4178 54.8613 78.3235 53.9298 76.3304 52.731C77.7819 50.7163 79.3562 49.012 81.0243 47.676C82.1075 48.4126 83.2196 49.012 84.3534 49.4669ZM79.1396 46.239C79.1901 46.2823 79.2479 46.3256 79.2984 46.369C77.6303 47.7844 76.0488 49.5319 74.5685 51.5973C73.8102 51.0701 73.0736 50.5068 72.3514 49.9002C74.489 48.4054 76.7637 47.1705 79.1396 46.239ZM70.7483 48.4126C70.7483 48.4126 70.7195 48.4343 70.705 48.4487C70.705 48.4487 70.705 48.4487 70.6978 48.4415C70.7122 48.4343 70.7339 48.427 70.7483 48.4198V48.4126ZM70.6111 51.1929C71.5138 51.9655 72.4309 52.6949 73.3841 53.352C72.7848 54.3053 72.1998 55.3018 71.6438 56.3634C70.6761 58.1976 69.8023 60.1618 69.0224 62.2199C67.051 61.2017 65.1662 60.0463 63.3753 58.7681C65.5201 55.8651 67.9465 53.3087 70.6184 51.1929H70.6111ZM68.6902 49.4308C68.7986 49.5392 68.9068 49.6403 69.0152 49.7414C66.3144 51.9367 63.8447 54.5436 61.6711 57.4899C60.9561 56.9266 60.2557 56.3417 59.5768 55.7351C62.3426 53.2798 65.3973 51.1567 68.6902 49.4236V49.4308ZM58.0098 57.2011C58.7969 57.9088 59.6057 58.5875 60.4434 59.2447C58.1109 62.7254 56.1683 66.6322 54.6879 70.8422C52.9837 69.9684 51.3445 69.0297 49.7702 68.0331C51.9727 64.0181 54.7601 60.3713 58.0025 57.2011H58.0098ZM48.8025 69.9107C50.4706 70.965 52.211 71.9543 54.0235 72.8714C52.4782 77.8975 51.5899 83.3208 51.4961 88.9896H44.1592C44.3181 82.1582 45.9717 75.695 48.8025 69.9035V69.9107ZM44.1592 91.1271H51.4961C51.5899 96.5649 52.406 101.779 53.843 106.631C52.0088 107.577 50.2396 108.588 48.5425 109.664C45.8706 104.017 44.3181 97.7419 44.1592 91.1271ZM49.4886 111.556C51.0845 110.531 52.7526 109.571 54.4785 108.675C55.9156 112.936 57.8221 116.879 60.1329 120.41C59.2736 121.096 58.4359 121.811 57.6271 122.555C54.3991 119.334 51.655 115.629 49.4886 111.556ZM68.2208 130.448C64.9423 128.671 61.9094 126.512 59.1653 124.021C59.8657 123.378 60.595 122.764 61.3388 122.165C63.4908 125.154 65.9389 127.812 68.6253 130.05C68.4881 130.18 68.3508 130.31 68.2208 130.448ZM63.0287 120.879C64.8557 119.551 66.7838 118.352 68.7986 117.297C69.6363 119.579 70.5894 121.746 71.6438 123.761C72.1059 124.642 72.5825 125.479 73.0808 126.281C72.0915 126.989 71.131 127.761 70.1923 128.592C67.5492 126.425 65.1373 123.826 63.0287 120.886V120.879ZM70.1995 131.459C70.1995 131.459 70.2645 131.401 70.2934 131.372C70.445 131.48 70.5967 131.596 70.7483 131.704C70.5678 131.617 70.3872 131.545 70.1995 131.459ZM78.5907 133.661C76.2438 132.693 74.0051 131.43 71.8965 129.899C72.6547 129.242 73.4419 128.621 74.2363 128.05C75.6878 130.144 77.2476 131.935 78.8868 133.394C78.7857 133.481 78.6846 133.567 78.5835 133.661H78.5907ZM75.9838 126.887C78.0347 125.617 80.1939 124.627 82.4326 123.934C82.9381 126.18 83.5085 128.231 84.1368 130.029C82.9164 130.541 81.7248 131.22 80.5622 132.058C78.9301 130.664 77.3992 128.924 75.9838 126.887ZM82.3315 133.401C83.1619 132.845 84.0213 132.383 84.8879 132.015C85.4583 133.372 86.0649 134.542 86.722 135.474C85.2055 135.055 83.7396 134.354 82.3315 133.408V133.401ZM90.9682 135.885C90.7516 135.885 90.5421 135.885 90.3255 135.893C89.3434 135.669 88.1158 134.311 86.8665 131.35C87.8342 131.112 88.809 130.982 89.8056 130.982C91.3004 130.982 92.7664 131.264 94.1818 131.791C93.0191 134.405 91.8853 135.633 90.961 135.878L90.9682 135.885ZM94.8389 134.997C95.2721 134.318 95.6838 133.538 96.081 132.665C96.5793 132.939 97.0703 133.235 97.5541 133.574C96.6731 134.145 95.7632 134.629 94.8389 134.997ZM96.8826 130.686C97.5542 128.866 98.1608 126.765 98.7024 124.439C100.537 125.133 102.313 126.021 104.01 127.104C102.566 129.148 101.006 130.874 99.3378 132.253C98.5362 131.654 97.713 131.126 96.8826 130.686ZM101.042 133.661C101.042 133.661 101.006 133.632 100.992 133.611C102.66 132.166 104.248 130.39 105.729 128.288C106.408 128.794 107.079 129.321 107.729 129.884C105.62 131.415 103.389 132.679 101.042 133.654V133.661ZM108.863 131.704C109.022 131.589 109.173 131.48 109.332 131.357C109.368 131.386 109.397 131.415 109.426 131.444C109.238 131.531 109.051 131.61 108.863 131.697V131.704ZM109.433 128.577C108.61 127.848 107.765 127.162 106.899 126.526C107.447 125.645 107.982 124.721 108.495 123.746C109.52 121.796 110.437 119.709 111.26 117.514C113.116 118.511 114.9 119.637 116.597 120.872C114.488 123.818 112.076 126.411 109.433 128.577ZM111.398 130.44C111.268 130.303 111.13 130.18 110.993 130.043C113.679 127.805 116.128 125.154 118.28 122.157C119.023 122.757 119.746 123.371 120.453 124.013C117.716 126.505 114.676 128.664 111.398 130.44Z" fill="#0038FF"/>
</svg>
